ISO-10303-21;
HEADER;
/* Generated by software containing ST-Developer
 * from STEP Tools, Inc. (www.steptools.com) 
 */

FILE_DESCRIPTION(
/* description */ (''),
/* implementation_level */ '2;1');

FILE_NAME(
/* name */ 
'C:\\Users\\super\\Desktop\\Giovanni\\Science\\3D Models\\Autodesk-Inv
entor\\Projects\\Quartz Crystal ABM10-166\\Quartz Crystal ABM10-166.st
ep',
/* time_stamp */ '2021-10-01T19:13:42-07:00',
/* author */ ('super'),
/* organization */ (''),
/* preprocessor_version */ 'ST-DEVELOPER v18.1',
/* originating_system */ 'Autodesk Inventor 2022',
/* authorisation */ '');

FILE_SCHEMA (('AUTOMOTIVE_DESIGN { 1 0 10303 214 3 1 1 }'));
ENDSEC;

DATA;
#10=MECHANICAL_DESIGN_GEOMETRIC_PRESENTATION_REPRESENTATION('',(#26,#27,
#28,#29,#30,#31,#32,#33,#34,#35,#36,#37,#38,#39,#40,#41,#42,#43,#44),#833);
#11=SHAPE_REPRESENTATION_RELATIONSHIP('SRR','None',#840,#12);
#12=ADVANCED_BREP_SHAPE_REPRESENTATION('',(#13),#832);
#13=MANIFOLD_SOLID_BREP('Solid1',#475);
#14=FACE_BOUND('',#174,.T.);
#15=PLANE('',#519);
#16=PLANE('',#522);
#17=PLANE('',#525);
#18=PLANE('',#538);
#19=PLANE('',#541);
#20=PLANE('',#542);
#21=PLANE('',#544);
#22=PLANE('',#546);
#23=PLANE('',#547);
#24=PLANE('',#548);
#25=PLANE('',#549);
#26=STYLED_ITEM('',(#850),#456);
#27=STYLED_ITEM('',(#850),#457);
#28=STYLED_ITEM('',(#850),#458);
#29=STYLED_ITEM('',(#850),#459);
#30=STYLED_ITEM('',(#851),#461);
#31=STYLED_ITEM('',(#852),#462);
#32=STYLED_ITEM('',(#851),#463);
#33=STYLED_ITEM('',(#851),#464);
#34=STYLED_ITEM('',(#851),#465);
#35=STYLED_ITEM('',(#851),#466);
#36=STYLED_ITEM('',(#851),#467);
#37=STYLED_ITEM('',(#850),#468);
#38=STYLED_ITEM('',(#850),#469);
#39=STYLED_ITEM('',(#850),#470);
#40=STYLED_ITEM('',(#850),#471);
#41=STYLED_ITEM('',(#851),#472);
#42=STYLED_ITEM('',(#851),#473);
#43=STYLED_ITEM('',(#851),#474);
#44=STYLED_ITEM('',(#849),#13);
#45=LINE('',#712,#81);
#46=LINE('',#713,#82);
#47=LINE('',#724,#83);
#48=LINE('',#725,#84);
#49=LINE('',#736,#85);
#50=LINE('',#737,#86);
#51=LINE('',#745,#87);
#52=LINE('',#746,#88);
#53=LINE('',#749,#89);
#54=LINE('',#751,#90);
#55=LINE('',#752,#91);
#56=LINE('',#755,#92);
#57=LINE('',#759,#93);
#58=LINE('',#760,#94);
#59=LINE('',#763,#95);
#60=LINE('',#771,#96);
#61=LINE('',#774,#97);
#62=LINE('',#780,#98);
#63=LINE('',#783,#99);
#64=LINE('',#789,#100);
#65=LINE('',#792,#101);
#66=LINE('',#798,#102);
#67=LINE('',#801,#103);
#68=LINE('',#803,#104);
#69=LINE('',#804,#105);
#70=LINE('',#805,#106);
#71=LINE('',#806,#107);
#72=LINE('',#808,#108);
#73=LINE('',#812,#109);
#74=LINE('',#815,#110);
#75=LINE('',#816,#111);
#76=LINE('',#817,#112);
#77=LINE('',#818,#113);
#78=LINE('',#821,#114);
#79=LINE('',#822,#115);
#80=LINE('',#825,#116);
#81=VECTOR('',#566,10.);
#82=VECTOR('',#567,10.);
#83=VECTOR('',#580,10.);
#84=VECTOR('',#581,10.);
#85=VECTOR('',#594,10.);
#86=VECTOR('',#595,10.);
#87=VECTOR('',#606,10.);
#88=VECTOR('',#607,10.);
#89=VECTOR('',#610,10.);
#90=VECTOR('',#611,10.);
#91=VECTOR('',#612,10.);
#92=VECTOR('',#615,10.);
#93=VECTOR('',#620,10.);
#94=VECTOR('',#621,10.);
#95=VECTOR('',#624,10.);
#96=VECTOR('',#633,10.);
#97=VECTOR('',#636,10.);
#98=VECTOR('',#641,10.);
#99=VECTOR('',#644,10.);
#100=VECTOR('',#649,10.);
#101=VECTOR('',#652,10.);
#102=VECTOR('',#657,10.);
#103=VECTOR('',#660,10.);
#104=VECTOR('',#663,10.);
#105=VECTOR('',#664,10.);
#106=VECTOR('',#665,10.);
#107=VECTOR('',#666,10.);
#108=VECTOR('',#667,10.);
#109=VECTOR('',#670,10.);
#110=VECTOR('',#675,10.);
#111=VECTOR('',#676,10.);
#112=VECTOR('',#677,10.);
#113=VECTOR('',#678,10.);
#114=VECTOR('',#683,10.);
#115=VECTOR('',#684,10.);
#116=VECTOR('',#689,10.);
#117=CYLINDRICAL_SURFACE('',#500,0.04);
#118=CYLINDRICAL_SURFACE('',#506,0.04);
#119=CYLINDRICAL_SURFACE('',#512,0.04);
#120=CYLINDRICAL_SURFACE('',#518,0.04);
#121=CYLINDRICAL_SURFACE('',#520,0.15);
#122=CYLINDRICAL_SURFACE('',#523,0.15);
#123=CYLINDRICAL_SURFACE('',#526,0.135);
#124=CYLINDRICAL_SURFACE('',#529,0.135);
#125=CYLINDRICAL_SURFACE('',#532,0.135);
#126=CYLINDRICAL_SURFACE('',#535,0.135);
#127=CYLINDRICAL_SURFACE('',#543,0.15);
#128=CYLINDRICAL_SURFACE('',#545,0.15);
#129=FACE_OUTER_BOUND('',#156,.T.);
#130=FACE_OUTER_BOUND('',#157,.T.);
#131=FACE_OUTER_BOUND('',#158,.T.);
#132=FACE_OUTER_BOUND('',#159,.T.);
#133=FACE_OUTER_BOUND('',#160,.T.);
#134=FACE_OUTER_BOUND('',#161,.T.);
#135=FACE_OUTER_BOUND('',#162,.T.);
#136=FACE_OUTER_BOUND('',#163,.T.);
#137=FACE_OUTER_BOUND('',#164,.T.);
#138=FACE_OUTER_BOUND('',#165,.T.);
#139=FACE_OUTER_BOUND('',#166,.T.);
#140=FACE_OUTER_BOUND('',#167,.T.);
#141=FACE_OUTER_BOUND('',#168,.T.);
#142=FACE_OUTER_BOUND('',#169,.T.);
#143=FACE_OUTER_BOUND('',#170,.T.);
#144=FACE_OUTER_BOUND('',#171,.T.);
#145=FACE_OUTER_BOUND('',#172,.T.);
#146=FACE_OUTER_BOUND('',#173,.T.);
#147=FACE_OUTER_BOUND('',#175,.T.);
#148=FACE_OUTER_BOUND('',#176,.T.);
#149=FACE_OUTER_BOUND('',#177,.T.);
#150=FACE_OUTER_BOUND('',#178,.T.);
#151=FACE_OUTER_BOUND('',#179,.T.);
#152=FACE_OUTER_BOUND('',#180,.T.);
#153=FACE_OUTER_BOUND('',#181,.T.);
#154=FACE_OUTER_BOUND('',#182,.T.);
#155=FACE_OUTER_BOUND('',#183,.T.);
#156=EDGE_LOOP('',(#316,#317,#318,#319));
#157=EDGE_LOOP('',(#320,#321,#322,#323));
#158=EDGE_LOOP('',(#324,#325,#326,#327));
#159=EDGE_LOOP('',(#328,#329,#330,#331));
#160=EDGE_LOOP('',(#332,#333,#334,#335));
#161=EDGE_LOOP('',(#336,#337,#338,#339));
#162=EDGE_LOOP('',(#340,#341,#342,#343));
#163=EDGE_LOOP('',(#344,#345,#346,#347));
#164=EDGE_LOOP('',(#348,#349,#350,#351));
#165=EDGE_LOOP('',(#352,#353,#354,#355));
#166=EDGE_LOOP('',(#356,#357,#358,#359));
#167=EDGE_LOOP('',(#360,#361,#362,#363));
#168=EDGE_LOOP('',(#364,#365,#366,#367,#368,#369,#370,#371));
#169=EDGE_LOOP('',(#372,#373,#374,#375));
#170=EDGE_LOOP('',(#376,#377,#378,#379));
#171=EDGE_LOOP('',(#380,#381,#382,#383));
#172=EDGE_LOOP('',(#384,#385,#386,#387));
#173=EDGE_LOOP('',(#388,#389,#390,#391,#392,#393,#394,#395));
#174=EDGE_LOOP('',(#396,#397,#398,#399,#400,#401,#402,#403));
#175=EDGE_LOOP('',(#404,#405,#406,#407,#408,#409,#410,#411));
#176=EDGE_LOOP('',(#412,#413,#414,#415));
#177=EDGE_LOOP('',(#416,#417,#418,#419));
#178=EDGE_LOOP('',(#420,#421,#422,#423));
#179=EDGE_LOOP('',(#424,#425,#426,#427));
#180=EDGE_LOOP('',(#428,#429,#430,#431));
#181=EDGE_LOOP('',(#432,#433,#434,#435));
#182=EDGE_LOOP('',(#436,#437,#438,#439));
#183=EDGE_LOOP('',(#440,#441,#442,#443));
#184=CIRCLE('',#496,0.04);
#185=CIRCLE('',#497,0.11);
#186=CIRCLE('',#498,0.04);
#187=CIRCLE('',#499,0.15);
#188=CIRCLE('',#501,0.04);
#189=CIRCLE('',#503,0.04);
#190=CIRCLE('',#504,0.15);
#191=CIRCLE('',#505,0.11);
#192=CIRCLE('',#507,0.04);
#193=CIRCLE('',#509,0.04);
#194=CIRCLE('',#510,0.15);
#195=CIRCLE('',#511,0.11);
#196=CIRCLE('',#513,0.04);
#197=CIRCLE('',#515,0.04);
#198=CIRCLE('',#516,0.15);
#199=CIRCLE('',#517,0.11);
#200=CIRCLE('',#521,0.15);
#201=CIRCLE('',#524,0.15);
#202=CIRCLE('',#527,0.135);
#203=CIRCLE('',#528,0.135);
#204=CIRCLE('',#530,0.135);
#205=CIRCLE('',#531,0.135);
#206=CIRCLE('',#533,0.135);
#207=CIRCLE('',#534,0.135);
#208=CIRCLE('',#536,0.135);
#209=CIRCLE('',#537,0.135);
#210=CIRCLE('',#539,0.15);
#211=CIRCLE('',#540,0.15);
#212=VERTEX_POINT('',#700);
#213=VERTEX_POINT('',#701);
#214=VERTEX_POINT('',#703);
#215=VERTEX_POINT('',#705);
#216=VERTEX_POINT('',#709);
#217=VERTEX_POINT('',#710);
#218=VERTEX_POINT('',#715);
#219=VERTEX_POINT('',#716);
#220=VERTEX_POINT('',#721);
#221=VERTEX_POINT('',#722);
#222=VERTEX_POINT('',#727);
#223=VERTEX_POINT('',#728);
#224=VERTEX_POINT('',#733);
#225=VERTEX_POINT('',#734);
#226=VERTEX_POINT('',#739);
#227=VERTEX_POINT('',#740);
#228=VERTEX_POINT('',#748);
#229=VERTEX_POINT('',#750);
#230=VERTEX_POINT('',#754);
#231=VERTEX_POINT('',#758);
#232=VERTEX_POINT('',#762);
#233=VERTEX_POINT('',#767);
#234=VERTEX_POINT('',#768);
#235=VERTEX_POINT('',#770);
#236=VERTEX_POINT('',#772);
#237=VERTEX_POINT('',#776);
#238=VERTEX_POINT('',#777);
#239=VERTEX_POINT('',#779);
#240=VERTEX_POINT('',#781);
#241=VERTEX_POINT('',#785);
#242=VERTEX_POINT('',#786);
#243=VERTEX_POINT('',#788);
#244=VERTEX_POINT('',#790);
#245=VERTEX_POINT('',#794);
#246=VERTEX_POINT('',#795);
#247=VERTEX_POINT('',#797);
#248=VERTEX_POINT('',#799);
#249=VERTEX_POINT('',#807);
#250=VERTEX_POINT('',#809);
#251=VERTEX_POINT('',#811);
#252=EDGE_CURVE('',#212,#213,#184,.T.);
#253=EDGE_CURVE('',#213,#214,#185,.T.);
#254=EDGE_CURVE('',#214,#215,#186,.T.);
#255=EDGE_CURVE('',#215,#212,#187,.T.);
#256=EDGE_CURVE('',#216,#217,#188,.T.);
#257=EDGE_CURVE('',#217,#215,#45,.T.);
#258=EDGE_CURVE('',#214,#216,#46,.T.);
#259=EDGE_CURVE('',#218,#219,#189,.T.);
#260=EDGE_CURVE('',#219,#217,#190,.T.);
#261=EDGE_CURVE('',#216,#218,#191,.T.);
#262=EDGE_CURVE('',#220,#221,#192,.T.);
#263=EDGE_CURVE('',#221,#219,#47,.T.);
#264=EDGE_CURVE('',#218,#220,#48,.T.);
#265=EDGE_CURVE('',#222,#223,#193,.T.);
#266=EDGE_CURVE('',#223,#221,#194,.T.);
#267=EDGE_CURVE('',#220,#222,#195,.T.);
#268=EDGE_CURVE('',#224,#225,#196,.T.);
#269=EDGE_CURVE('',#225,#223,#49,.T.);
#270=EDGE_CURVE('',#222,#224,#50,.T.);
#271=EDGE_CURVE('',#226,#227,#197,.T.);
#272=EDGE_CURVE('',#227,#225,#198,.T.);
#273=EDGE_CURVE('',#224,#226,#199,.T.);
#274=EDGE_CURVE('',#226,#213,#51,.T.);
#275=EDGE_CURVE('',#212,#227,#52,.T.);
#276=EDGE_CURVE('',#228,#225,#53,.T.);
#277=EDGE_CURVE('',#229,#228,#54,.T.);
#278=EDGE_CURVE('',#223,#229,#55,.T.);
#279=EDGE_CURVE('',#227,#230,#56,.T.);
#280=EDGE_CURVE('',#230,#228,#200,.F.);
#281=EDGE_CURVE('',#231,#212,#57,.T.);
#282=EDGE_CURVE('',#230,#231,#58,.T.);
#283=EDGE_CURVE('',#215,#232,#59,.T.);
#284=EDGE_CURVE('',#232,#231,#201,.F.);
#285=EDGE_CURVE('',#233,#234,#202,.T.);
#286=EDGE_CURVE('',#235,#233,#60,.T.);
#287=EDGE_CURVE('',#236,#235,#203,.T.);
#288=EDGE_CURVE('',#234,#236,#61,.T.);
#289=EDGE_CURVE('',#237,#238,#204,.T.);
#290=EDGE_CURVE('',#239,#237,#62,.T.);
#291=EDGE_CURVE('',#240,#239,#205,.T.);
#292=EDGE_CURVE('',#238,#240,#63,.T.);
#293=EDGE_CURVE('',#241,#242,#206,.T.);
#294=EDGE_CURVE('',#243,#241,#64,.T.);
#295=EDGE_CURVE('',#244,#243,#207,.T.);
#296=EDGE_CURVE('',#242,#244,#65,.T.);
#297=EDGE_CURVE('',#245,#246,#208,.T.);
#298=EDGE_CURVE('',#247,#245,#66,.T.);
#299=EDGE_CURVE('',#248,#247,#209,.T.);
#300=EDGE_CURVE('',#246,#248,#67,.T.);
#301=EDGE_CURVE('',#234,#241,#68,.T.);
#302=EDGE_CURVE('',#242,#245,#69,.T.);
#303=EDGE_CURVE('',#246,#237,#70,.T.);
#304=EDGE_CURVE('',#238,#233,#71,.T.);
#305=EDGE_CURVE('',#232,#249,#72,.T.);
#306=EDGE_CURVE('',#250,#249,#210,.F.);
#307=EDGE_CURVE('',#250,#251,#73,.T.);
#308=EDGE_CURVE('',#229,#251,#211,.F.);
#309=EDGE_CURVE('',#240,#235,#74,.T.);
#310=EDGE_CURVE('',#248,#239,#75,.T.);
#311=EDGE_CURVE('',#244,#247,#76,.T.);
#312=EDGE_CURVE('',#236,#243,#77,.T.);
#313=EDGE_CURVE('',#219,#250,#78,.T.);
#314=EDGE_CURVE('',#249,#217,#79,.T.);
#315=EDGE_CURVE('',#251,#221,#80,.T.);
#316=ORIENTED_EDGE('',*,*,#252,.T.);
#317=ORIENTED_EDGE('',*,*,#253,.T.);
#318=ORIENTED_EDGE('',*,*,#254,.T.);
#319=ORIENTED_EDGE('',*,*,#255,.T.);
#320=ORIENTED_EDGE('',*,*,#256,.T.);
#321=ORIENTED_EDGE('',*,*,#257,.T.);
#322=ORIENTED_EDGE('',*,*,#254,.F.);
#323=ORIENTED_EDGE('',*,*,#258,.T.);
#324=ORIENTED_EDGE('',*,*,#259,.T.);
#325=ORIENTED_EDGE('',*,*,#260,.T.);
#326=ORIENTED_EDGE('',*,*,#256,.F.);
#327=ORIENTED_EDGE('',*,*,#261,.T.);
#328=ORIENTED_EDGE('',*,*,#262,.T.);
#329=ORIENTED_EDGE('',*,*,#263,.T.);
#330=ORIENTED_EDGE('',*,*,#259,.F.);
#331=ORIENTED_EDGE('',*,*,#264,.T.);
#332=ORIENTED_EDGE('',*,*,#265,.T.);
#333=ORIENTED_EDGE('',*,*,#266,.T.);
#334=ORIENTED_EDGE('',*,*,#262,.F.);
#335=ORIENTED_EDGE('',*,*,#267,.T.);
#336=ORIENTED_EDGE('',*,*,#268,.T.);
#337=ORIENTED_EDGE('',*,*,#269,.T.);
#338=ORIENTED_EDGE('',*,*,#265,.F.);
#339=ORIENTED_EDGE('',*,*,#270,.T.);
#340=ORIENTED_EDGE('',*,*,#271,.T.);
#341=ORIENTED_EDGE('',*,*,#272,.T.);
#342=ORIENTED_EDGE('',*,*,#268,.F.);
#343=ORIENTED_EDGE('',*,*,#273,.T.);
#344=ORIENTED_EDGE('',*,*,#271,.F.);
#345=ORIENTED_EDGE('',*,*,#274,.T.);
#346=ORIENTED_EDGE('',*,*,#252,.F.);
#347=ORIENTED_EDGE('',*,*,#275,.T.);
#348=ORIENTED_EDGE('',*,*,#269,.F.);
#349=ORIENTED_EDGE('',*,*,#276,.F.);
#350=ORIENTED_EDGE('',*,*,#277,.F.);
#351=ORIENTED_EDGE('',*,*,#278,.F.);
#352=ORIENTED_EDGE('',*,*,#272,.F.);
#353=ORIENTED_EDGE('',*,*,#279,.T.);
#354=ORIENTED_EDGE('',*,*,#280,.T.);
#355=ORIENTED_EDGE('',*,*,#276,.T.);
#356=ORIENTED_EDGE('',*,*,#275,.F.);
#357=ORIENTED_EDGE('',*,*,#281,.F.);
#358=ORIENTED_EDGE('',*,*,#282,.F.);
#359=ORIENTED_EDGE('',*,*,#279,.F.);
#360=ORIENTED_EDGE('',*,*,#255,.F.);
#361=ORIENTED_EDGE('',*,*,#283,.T.);
#362=ORIENTED_EDGE('',*,*,#284,.T.);
#363=ORIENTED_EDGE('',*,*,#281,.T.);
#364=ORIENTED_EDGE('',*,*,#253,.F.);
#365=ORIENTED_EDGE('',*,*,#274,.F.);
#366=ORIENTED_EDGE('',*,*,#273,.F.);
#367=ORIENTED_EDGE('',*,*,#270,.F.);
#368=ORIENTED_EDGE('',*,*,#267,.F.);
#369=ORIENTED_EDGE('',*,*,#264,.F.);
#370=ORIENTED_EDGE('',*,*,#261,.F.);
#371=ORIENTED_EDGE('',*,*,#258,.F.);
#372=ORIENTED_EDGE('',*,*,#285,.F.);
#373=ORIENTED_EDGE('',*,*,#286,.F.);
#374=ORIENTED_EDGE('',*,*,#287,.F.);
#375=ORIENTED_EDGE('',*,*,#288,.F.);
#376=ORIENTED_EDGE('',*,*,#289,.F.);
#377=ORIENTED_EDGE('',*,*,#290,.F.);
#378=ORIENTED_EDGE('',*,*,#291,.F.);
#379=ORIENTED_EDGE('',*,*,#292,.F.);
#380=ORIENTED_EDGE('',*,*,#293,.F.);
#381=ORIENTED_EDGE('',*,*,#294,.F.);
#382=ORIENTED_EDGE('',*,*,#295,.F.);
#383=ORIENTED_EDGE('',*,*,#296,.F.);
#384=ORIENTED_EDGE('',*,*,#297,.F.);
#385=ORIENTED_EDGE('',*,*,#298,.F.);
#386=ORIENTED_EDGE('',*,*,#299,.F.);
#387=ORIENTED_EDGE('',*,*,#300,.F.);
#388=ORIENTED_EDGE('',*,*,#285,.T.);
#389=ORIENTED_EDGE('',*,*,#301,.T.);
#390=ORIENTED_EDGE('',*,*,#293,.T.);
#391=ORIENTED_EDGE('',*,*,#302,.T.);
#392=ORIENTED_EDGE('',*,*,#297,.T.);
#393=ORIENTED_EDGE('',*,*,#303,.T.);
#394=ORIENTED_EDGE('',*,*,#289,.T.);
#395=ORIENTED_EDGE('',*,*,#304,.T.);
#396=ORIENTED_EDGE('',*,*,#277,.T.);
#397=ORIENTED_EDGE('',*,*,#280,.F.);
#398=ORIENTED_EDGE('',*,*,#282,.T.);
#399=ORIENTED_EDGE('',*,*,#284,.F.);
#400=ORIENTED_EDGE('',*,*,#305,.T.);
#401=ORIENTED_EDGE('',*,*,#306,.F.);
#402=ORIENTED_EDGE('',*,*,#307,.T.);
#403=ORIENTED_EDGE('',*,*,#308,.F.);
#404=ORIENTED_EDGE('',*,*,#287,.T.);
#405=ORIENTED_EDGE('',*,*,#309,.F.);
#406=ORIENTED_EDGE('',*,*,#291,.T.);
#407=ORIENTED_EDGE('',*,*,#310,.F.);
#408=ORIENTED_EDGE('',*,*,#299,.T.);
#409=ORIENTED_EDGE('',*,*,#311,.F.);
#410=ORIENTED_EDGE('',*,*,#295,.T.);
#411=ORIENTED_EDGE('',*,*,#312,.F.);
#412=ORIENTED_EDGE('',*,*,#296,.T.);
#413=ORIENTED_EDGE('',*,*,#311,.T.);
#414=ORIENTED_EDGE('',*,*,#298,.T.);
#415=ORIENTED_EDGE('',*,*,#302,.F.);
#416=ORIENTED_EDGE('',*,*,#260,.F.);
#417=ORIENTED_EDGE('',*,*,#313,.T.);
#418=ORIENTED_EDGE('',*,*,#306,.T.);
#419=ORIENTED_EDGE('',*,*,#314,.T.);
#420=ORIENTED_EDGE('',*,*,#257,.F.);
#421=ORIENTED_EDGE('',*,*,#314,.F.);
#422=ORIENTED_EDGE('',*,*,#305,.F.);
#423=ORIENTED_EDGE('',*,*,#283,.F.);
#424=ORIENTED_EDGE('',*,*,#266,.F.);
#425=ORIENTED_EDGE('',*,*,#278,.T.);
#426=ORIENTED_EDGE('',*,*,#308,.T.);
#427=ORIENTED_EDGE('',*,*,#315,.T.);
#428=ORIENTED_EDGE('',*,*,#263,.F.);
#429=ORIENTED_EDGE('',*,*,#315,.F.);
#430=ORIENTED_EDGE('',*,*,#307,.F.);
#431=ORIENTED_EDGE('',*,*,#313,.F.);
#432=ORIENTED_EDGE('',*,*,#288,.T.);
#433=ORIENTED_EDGE('',*,*,#312,.T.);
#434=ORIENTED_EDGE('',*,*,#294,.T.);
#435=ORIENTED_EDGE('',*,*,#301,.F.);
#436=ORIENTED_EDGE('',*,*,#286,.T.);
#437=ORIENTED_EDGE('',*,*,#304,.F.);
#438=ORIENTED_EDGE('',*,*,#292,.T.);
#439=ORIENTED_EDGE('',*,*,#309,.T.);
#440=ORIENTED_EDGE('',*,*,#290,.T.);
#441=ORIENTED_EDGE('',*,*,#303,.F.);
#442=ORIENTED_EDGE('',*,*,#300,.T.);
#443=ORIENTED_EDGE('',*,*,#310,.T.);
#444=TOROIDAL_SURFACE('',#495,0.11,0.04);
#445=TOROIDAL_SURFACE('',#502,0.11,0.04);
#446=TOROIDAL_SURFACE('',#508,0.11,0.04);
#447=TOROIDAL_SURFACE('',#514,0.11,0.04);
#448=ADVANCED_FACE('',(#129),#444,.T.);
#449=ADVANCED_FACE('',(#130),#117,.T.);
#450=ADVANCED_FACE('',(#131),#445,.T.);
#451=ADVANCED_FACE('',(#132),#118,.T.);
#452=ADVANCED_FACE('',(#133),#446,.T.);
#453=ADVANCED_FACE('',(#134),#119,.T.);
#454=ADVANCED_FACE('',(#135),#447,.T.);
#455=ADVANCED_FACE('',(#136),#120,.T.);
#456=ADVANCED_FACE('',(#137),#15,.T.);
#457=ADVANCED_FACE('',(#138),#121,.T.);
#458=ADVANCED_FACE('',(#139),#16,.T.);
#459=ADVANCED_FACE('',(#140),#122,.T.);
#460=ADVANCED_FACE('',(#141),#17,.T.);
#461=ADVANCED_FACE('',(#142),#123,.F.);
#462=ADVANCED_FACE('',(#143),#124,.F.);
#463=ADVANCED_FACE('',(#144),#125,.F.);
#464=ADVANCED_FACE('',(#145),#126,.F.);
#465=ADVANCED_FACE('',(#146,#14),#18,.T.);
#466=ADVANCED_FACE('',(#147),#19,.F.);
#467=ADVANCED_FACE('',(#148),#20,.T.);
#468=ADVANCED_FACE('',(#149),#127,.T.);
#469=ADVANCED_FACE('',(#150),#21,.T.);
#470=ADVANCED_FACE('',(#151),#128,.T.);
#471=ADVANCED_FACE('',(#152),#22,.T.);
#472=ADVANCED_FACE('',(#153),#23,.T.);
#473=ADVANCED_FACE('',(#154),#24,.T.);
#474=ADVANCED_FACE('',(#155),#25,.T.);
#475=CLOSED_SHELL('',(#448,#449,#450,#451,#452,#453,#454,#455,#456,#457,
#458,#459,#460,#461,#462,#463,#464,#465,#466,#467,#468,#469,#470,#471,#472,
#473,#474));
#476=DERIVED_UNIT_ELEMENT(#478,1.);
#477=DERIVED_UNIT_ELEMENT(#835,-3.);
#478=(
MASS_UNIT()
NAMED_UNIT(*)
SI_UNIT($,.GRAM.)
);
#479=DERIVED_UNIT((#476,#477));
#480=MEASURE_REPRESENTATION_ITEM('density measure',
POSITIVE_RATIO_MEASURE(0.899),#479);
#481=PROPERTY_DEFINITION_REPRESENTATION(#486,#483);
#482=PROPERTY_DEFINITION_REPRESENTATION(#487,#484);
#483=REPRESENTATION('material name',(#485),#832);
#484=REPRESENTATION('density',(#480),#832);
#485=DESCRIPTIVE_REPRESENTATION_ITEM('Polypropylene','Polypropylene');
#486=PROPERTY_DEFINITION('material property','material name',#842);
#487=PROPERTY_DEFINITION('material property','density of part',#842);
#488=DATE_TIME_ROLE('creation_date');
#489=APPLIED_DATE_AND_TIME_ASSIGNMENT(#490,#488,(#842));
#490=DATE_AND_TIME(#491,#492);
#491=CALENDAR_DATE(2021,1,10);
#492=LOCAL_TIME(0,0,0.,#493);
#493=COORDINATED_UNIVERSAL_TIME_OFFSET(0,0,.BEHIND.);
#494=AXIS2_PLACEMENT_3D('placement',#698,#550,#551);
#495=AXIS2_PLACEMENT_3D('',#699,#552,#553);
#496=AXIS2_PLACEMENT_3D('',#702,#554,#555);
#497=AXIS2_PLACEMENT_3D('',#704,#556,#557);
#498=AXIS2_PLACEMENT_3D('',#706,#558,#559);
#499=AXIS2_PLACEMENT_3D('',#707,#560,#561);
#500=AXIS2_PLACEMENT_3D('',#708,#562,#563);
#501=AXIS2_PLACEMENT_3D('',#711,#564,#565);
#502=AXIS2_PLACEMENT_3D('',#714,#568,#569);
#503=AXIS2_PLACEMENT_3D('',#717,#570,#571);
#504=AXIS2_PLACEMENT_3D('',#718,#572,#573);
#505=AXIS2_PLACEMENT_3D('',#719,#574,#575);
#506=AXIS2_PLACEMENT_3D('',#720,#576,#577);
#507=AXIS2_PLACEMENT_3D('',#723,#578,#579);
#508=AXIS2_PLACEMENT_3D('',#726,#582,#583);
#509=AXIS2_PLACEMENT_3D('',#729,#584,#585);
#510=AXIS2_PLACEMENT_3D('',#730,#586,#587);
#511=AXIS2_PLACEMENT_3D('',#731,#588,#589);
#512=AXIS2_PLACEMENT_3D('',#732,#590,#591);
#513=AXIS2_PLACEMENT_3D('',#735,#592,#593);
#514=AXIS2_PLACEMENT_3D('',#738,#596,#597);
#515=AXIS2_PLACEMENT_3D('',#741,#598,#599);
#516=AXIS2_PLACEMENT_3D('',#742,#600,#601);
#517=AXIS2_PLACEMENT_3D('',#743,#602,#603);
#518=AXIS2_PLACEMENT_3D('',#744,#604,#605);
#519=AXIS2_PLACEMENT_3D('',#747,#608,#609);
#520=AXIS2_PLACEMENT_3D('',#753,#613,#614);
#521=AXIS2_PLACEMENT_3D('',#756,#616,#617);
#522=AXIS2_PLACEMENT_3D('',#757,#618,#619);
#523=AXIS2_PLACEMENT_3D('',#761,#622,#623);
#524=AXIS2_PLACEMENT_3D('',#764,#625,#626);
#525=AXIS2_PLACEMENT_3D('',#765,#627,#628);
#526=AXIS2_PLACEMENT_3D('',#766,#629,#630);
#527=AXIS2_PLACEMENT_3D('',#769,#631,#632);
#528=AXIS2_PLACEMENT_3D('',#773,#634,#635);
#529=AXIS2_PLACEMENT_3D('',#775,#637,#638);
#530=AXIS2_PLACEMENT_3D('',#778,#639,#640);
#531=AXIS2_PLACEMENT_3D('',#782,#642,#643);
#532=AXIS2_PLACEMENT_3D('',#784,#645,#646);
#533=AXIS2_PLACEMENT_3D('',#787,#647,#648);
#534=AXIS2_PLACEMENT_3D('',#791,#650,#651);
#535=AXIS2_PLACEMENT_3D('',#793,#653,#654);
#536=AXIS2_PLACEMENT_3D('',#796,#655,#656);
#537=AXIS2_PLACEMENT_3D('',#800,#658,#659);
#538=AXIS2_PLACEMENT_3D('',#802,#661,#662);
#539=AXIS2_PLACEMENT_3D('',#810,#668,#669);
#540=AXIS2_PLACEMENT_3D('',#813,#671,#672);
#541=AXIS2_PLACEMENT_3D('',#814,#673,#674);
#542=AXIS2_PLACEMENT_3D('',#819,#679,#680);
#543=AXIS2_PLACEMENT_3D('',#820,#681,#682);
#544=AXIS2_PLACEMENT_3D('',#823,#685,#686);
#545=AXIS2_PLACEMENT_3D('',#824,#687,#688);
#546=AXIS2_PLACEMENT_3D('',#826,#690,#691);
#547=AXIS2_PLACEMENT_3D('',#827,#692,#693);
#548=AXIS2_PLACEMENT_3D('',#828,#694,#695);
#549=AXIS2_PLACEMENT_3D('',#829,#696,#697);
#550=DIRECTION('axis',(0.,0.,1.));
#551=DIRECTION('refdir',(1.,0.,0.));
#552=DIRECTION('center_axis',(0.,-1.,0.));
#553=DIRECTION('ref_axis',(0.,0.,-1.));
#554=DIRECTION('center_axis',(-1.,0.,0.));
#555=DIRECTION('ref_axis',(0.,0.,1.));
#556=DIRECTION('center_axis',(0.,-1.,0.));
#557=DIRECTION('ref_axis',(-0.707106781186547,0.,0.707106781186548));
#558=DIRECTION('center_axis',(0.,0.,1.));
#559=DIRECTION('ref_axis',(0.,1.,0.));
#560=DIRECTION('center_axis',(0.,1.,0.));
#561=DIRECTION('ref_axis',(-0.707106781186547,0.,0.707106781186548));
#562=DIRECTION('center_axis',(0.,0.,1.));
#563=DIRECTION('ref_axis',(-0.707106781186548,0.707106781186548,0.));
#564=DIRECTION('center_axis',(0.,0.,1.));
#565=DIRECTION('ref_axis',(0.,1.,0.));
#566=DIRECTION('',(0.,0.,1.));
#567=DIRECTION('',(0.,0.,-1.));
#568=DIRECTION('center_axis',(0.,-1.,0.));
#569=DIRECTION('ref_axis',(0.,0.,-1.));
#570=DIRECTION('center_axis',(-1.,0.,0.));
#571=DIRECTION('ref_axis',(0.,1.,0.));
#572=DIRECTION('center_axis',(0.,1.,0.));
#573=DIRECTION('ref_axis',(-0.707106781186547,0.,-0.707106781186547));
#574=DIRECTION('center_axis',(0.,-1.,0.));
#575=DIRECTION('ref_axis',(-0.707106781186548,0.,-0.707106781186548));
#576=DIRECTION('center_axis',(-1.,0.,0.));
#577=DIRECTION('ref_axis',(0.,0.707106781186548,-0.707106781186548));
#578=DIRECTION('center_axis',(-1.,0.,0.));
#579=DIRECTION('ref_axis',(0.,1.,0.));
#580=DIRECTION('',(-1.,0.,0.));
#581=DIRECTION('',(1.,0.,0.));
#582=DIRECTION('center_axis',(0.,-1.,0.));
#583=DIRECTION('ref_axis',(0.,0.,-1.));
#584=DIRECTION('center_axis',(0.,0.,-1.));
#585=DIRECTION('ref_axis',(0.,1.,0.));
#586=DIRECTION('center_axis',(0.,1.,0.));
#587=DIRECTION('ref_axis',(0.707106781186548,0.,-0.707106781186547));
#588=DIRECTION('center_axis',(0.,-1.,0.));
#589=DIRECTION('ref_axis',(0.707106781186548,0.,-0.707106781186547));
#590=DIRECTION('center_axis',(0.,0.,-1.));
#591=DIRECTION('ref_axis',(0.707106781186548,0.707106781186548,0.));
#592=DIRECTION('center_axis',(8.67361737988403E-16,0.,-1.));
#593=DIRECTION('ref_axis',(0.,1.,0.));
#594=DIRECTION('',(0.,0.,-1.));
#595=DIRECTION('',(0.,0.,1.));
#596=DIRECTION('center_axis',(0.,-1.,0.));
#597=DIRECTION('ref_axis',(0.,0.,-1.));
#598=DIRECTION('center_axis',(1.,0.,0.));
#599=DIRECTION('ref_axis',(0.,1.,0.));
#600=DIRECTION('center_axis',(0.,1.,0.));
#601=DIRECTION('ref_axis',(0.707106781186548,0.,0.707106781186547));
#602=DIRECTION('center_axis',(0.,-1.,0.));
#603=DIRECTION('ref_axis',(0.707106781186548,0.,0.707106781186547));
#604=DIRECTION('center_axis',(1.,0.,0.));
#605=DIRECTION('ref_axis',(0.,0.707106781186548,0.707106781186547));
#606=DIRECTION('',(-1.,0.,0.));
#607=DIRECTION('',(1.,0.,0.));
#608=DIRECTION('center_axis',(1.,0.,0.));
#609=DIRECTION('ref_axis',(0.,0.,-1.));
#610=DIRECTION('',(0.,1.,0.));
#611=DIRECTION('',(0.,0.,1.));
#612=DIRECTION('',(0.,-1.,0.));
#613=DIRECTION('center_axis',(0.,1.,0.));
#614=DIRECTION('ref_axis',(0.707106781186547,0.,0.707106781186548));
#615=DIRECTION('',(0.,-1.,0.));
#616=DIRECTION('center_axis',(0.,-1.,0.));
#617=DIRECTION('ref_axis',(0.707106781186547,0.,0.707106781186548));
#618=DIRECTION('center_axis',(0.,0.,1.));
#619=DIRECTION('ref_axis',(1.,0.,0.));
#620=DIRECTION('',(0.,1.,0.));
#621=DIRECTION('',(-1.,0.,0.));
#622=DIRECTION('center_axis',(0.,1.,0.));
#623=DIRECTION('ref_axis',(-0.707106781186548,0.,0.707106781186547));
#624=DIRECTION('',(0.,-1.,0.));
#625=DIRECTION('center_axis',(0.,-1.,0.));
#626=DIRECTION('ref_axis',(-0.707106781186548,0.,0.707106781186547));
#627=DIRECTION('center_axis',(0.,1.,0.));
#628=DIRECTION('ref_axis',(0.,0.,1.));
#629=DIRECTION('center_axis',(0.,-1.,0.));
#630=DIRECTION('ref_axis',(0.,0.,-1.));
#631=DIRECTION('center_axis',(0.,-1.,0.));
#632=DIRECTION('ref_axis',(0.,0.,-1.));
#633=DIRECTION('',(0.,1.,0.));
#634=DIRECTION('center_axis',(0.,1.,0.));
#635=DIRECTION('ref_axis',(0.,0.,-1.));
#636=DIRECTION('',(0.,-1.,0.));
#637=DIRECTION('center_axis',(0.,-1.,0.));
#638=DIRECTION('ref_axis',(1.,0.,0.));
#639=DIRECTION('center_axis',(0.,-1.,0.));
#640=DIRECTION('ref_axis',(1.,0.,0.));
#641=DIRECTION('',(0.,1.,0.));
#642=DIRECTION('center_axis',(0.,1.,0.));
#643=DIRECTION('ref_axis',(1.,0.,0.));
#644=DIRECTION('',(0.,-1.,0.));
#645=DIRECTION('center_axis',(0.,-1.,0.));
#646=DIRECTION('ref_axis',(-1.,0.,0.));
#647=DIRECTION('center_axis',(0.,-1.,0.));
#648=DIRECTION('ref_axis',(-1.,0.,0.));
#649=DIRECTION('',(0.,1.,0.));
#650=DIRECTION('center_axis',(0.,1.,0.));
#651=DIRECTION('ref_axis',(-1.,0.,0.));
#652=DIRECTION('',(0.,-1.,0.));
#653=DIRECTION('center_axis',(0.,-1.,0.));
#654=DIRECTION('ref_axis',(0.,0.,1.));
#655=DIRECTION('center_axis',(0.,-1.,0.));
#656=DIRECTION('ref_axis',(0.,0.,1.));
#657=DIRECTION('',(0.,1.,0.));
#658=DIRECTION('center_axis',(0.,1.,0.));
#659=DIRECTION('ref_axis',(0.,0.,1.));
#660=DIRECTION('',(0.,-1.,0.));
#661=DIRECTION('center_axis',(0.,1.,0.));
#662=DIRECTION('ref_axis',(0.,0.,1.));
#663=DIRECTION('',(0.,0.,-1.));
#664=DIRECTION('',(-1.,0.,0.));
#665=DIRECTION('',(0.,0.,1.));
#666=DIRECTION('',(1.,0.,0.));
#667=DIRECTION('',(0.,0.,-1.));
#668=DIRECTION('center_axis',(0.,-1.,0.));
#669=DIRECTION('ref_axis',(-0.707106781186547,0.,-0.707106781186547));
#670=DIRECTION('',(1.,0.,0.));
#671=DIRECTION('center_axis',(0.,-1.,0.));
#672=DIRECTION('ref_axis',(0.707106781186547,0.,-0.707106781186548));
#673=DIRECTION('center_axis',(0.,1.,0.));
#674=DIRECTION('ref_axis',(0.,0.,1.));
#675=DIRECTION('',(1.,0.,0.));
#676=DIRECTION('',(0.,0.,1.));
#677=DIRECTION('',(-1.,0.,0.));
#678=DIRECTION('',(0.,0.,-1.));
#679=DIRECTION('center_axis',(0.,0.,-1.));
#680=DIRECTION('ref_axis',(-1.,0.,0.));
#681=DIRECTION('center_axis',(0.,1.,0.));
#682=DIRECTION('ref_axis',(-0.707106781186547,0.,-0.707106781186547));
#683=DIRECTION('',(0.,-1.,0.));
#684=DIRECTION('',(0.,1.,0.));
#685=DIRECTION('center_axis',(-1.,0.,0.));
#686=DIRECTION('ref_axis',(0.,0.,1.));
#687=DIRECTION('center_axis',(0.,1.,0.));
#688=DIRECTION('ref_axis',(0.707106781186547,0.,-0.707106781186548));
#689=DIRECTION('',(0.,1.,0.));
#690=DIRECTION('center_axis',(0.,0.,-1.));
#691=DIRECTION('ref_axis',(-1.,0.,0.));
#692=DIRECTION('center_axis',(1.,0.,0.));
#693=DIRECTION('ref_axis',(0.,0.,-1.));
#694=DIRECTION('center_axis',(0.,0.,1.));
#695=DIRECTION('ref_axis',(1.,0.,0.));
#696=DIRECTION('center_axis',(-1.,0.,0.));
#697=DIRECTION('ref_axis',(0.,0.,1.));
#698=CARTESIAN_POINT('',(0.,0.,0.));
#699=CARTESIAN_POINT('Origin',(-1.775,0.46,-0.2));
#700=CARTESIAN_POINT('',(-1.775,0.46,-0.05));
#701=CARTESIAN_POINT('',(-1.775,0.5,-0.0900000000000001));
#702=CARTESIAN_POINT('Origin',(-1.775,0.46,-0.0900000000000001));
#703=CARTESIAN_POINT('',(-1.885,0.5,-0.2));
#704=CARTESIAN_POINT('Origin',(-1.775,0.5,-0.2));
#705=CARTESIAN_POINT('',(-1.925,0.46,-0.2));
#706=CARTESIAN_POINT('Origin',(-1.885,0.46,-0.2));
#707=CARTESIAN_POINT('Origin',(-1.775,0.46,-0.2));
#708=CARTESIAN_POINT('Origin',(-1.885,0.46,-1.85));
#709=CARTESIAN_POINT('',(-1.885,0.5,-2.3));
#710=CARTESIAN_POINT('',(-1.925,0.46,-2.3));
#711=CARTESIAN_POINT('Origin',(-1.885,0.46,-2.3));
#712=CARTESIAN_POINT('',(-1.925,0.46,-1.85));
#713=CARTESIAN_POINT('',(-1.885,0.5,-1.85));
#714=CARTESIAN_POINT('Origin',(-1.775,0.46,-2.3));
#715=CARTESIAN_POINT('',(-1.775,0.5,-2.41));
#716=CARTESIAN_POINT('',(-1.775,0.46,-2.45));
#717=CARTESIAN_POINT('Origin',(-1.775,0.46,-2.41));
#718=CARTESIAN_POINT('Origin',(-1.775,0.46,-2.3));
#719=CARTESIAN_POINT('Origin',(-1.775,0.5,-2.3));
#720=CARTESIAN_POINT('Origin',(-0.5375,0.46,-2.41));
#721=CARTESIAN_POINT('',(-0.225,0.5,-2.41));
#722=CARTESIAN_POINT('',(-0.225,0.46,-2.45));
#723=CARTESIAN_POINT('Origin',(-0.225,0.46,-2.41));
#724=CARTESIAN_POINT('',(-0.5375,0.46,-2.45));
#725=CARTESIAN_POINT('',(-0.5375,0.5,-2.41));
#726=CARTESIAN_POINT('Origin',(-0.225,0.46,-2.3));
#727=CARTESIAN_POINT('',(-0.115,0.5,-2.3));
#728=CARTESIAN_POINT('',(-0.075,0.46,-2.3));
#729=CARTESIAN_POINT('Origin',(-0.115,0.46,-2.3));
#730=CARTESIAN_POINT('Origin',(-0.225,0.46,-2.3));
#731=CARTESIAN_POINT('Origin',(-0.225,0.5,-2.3));
#732=CARTESIAN_POINT('Origin',(-0.115,0.46,-0.65));
#733=CARTESIAN_POINT('',(-0.115,0.5,-0.2));
#734=CARTESIAN_POINT('',(-0.075,0.46,-0.2));
#735=CARTESIAN_POINT('Origin',(-0.115,0.46,-0.2));
#736=CARTESIAN_POINT('',(-0.075,0.46,-0.65));
#737=CARTESIAN_POINT('',(-0.115,0.5,-0.65));
#738=CARTESIAN_POINT('Origin',(-0.225,0.46,-0.2));
#739=CARTESIAN_POINT('',(-0.225,0.5,-0.09));
#740=CARTESIAN_POINT('',(-0.225,0.46,-0.05));
#741=CARTESIAN_POINT('Origin',(-0.225,0.46,-0.09));
#742=CARTESIAN_POINT('Origin',(-0.225,0.46,-0.2));
#743=CARTESIAN_POINT('Origin',(-0.225,0.5,-0.2));
#744=CARTESIAN_POINT('Origin',(-1.4625,0.46,-0.09));
#745=CARTESIAN_POINT('',(-1.4625,0.5,-0.09));
#746=CARTESIAN_POINT('',(-1.4625,0.46,-0.05));
#747=CARTESIAN_POINT('Origin',(-0.075,0.27,-0.05));
#748=CARTESIAN_POINT('',(-0.0750000000000001,0.27,-0.2));
#749=CARTESIAN_POINT('',(-0.075,0.27,-0.2));
#750=CARTESIAN_POINT('',(-0.0750000000000001,0.27,-2.3));
#751=CARTESIAN_POINT('',(-0.0750000000000001,0.27,-0.65));
#752=CARTESIAN_POINT('',(-0.075,0.27,-2.3));
#753=CARTESIAN_POINT('Origin',(-0.225,0.27,-0.2));
#754=CARTESIAN_POINT('',(-0.225,0.27,-0.05));
#755=CARTESIAN_POINT('',(-0.225,0.27,-0.05));
#756=CARTESIAN_POINT('Origin',(-0.225,0.27,-0.2));
#757=CARTESIAN_POINT('Origin',(-1.925,0.27,-0.05));
#758=CARTESIAN_POINT('',(-1.775,0.27,-0.05));
#759=CARTESIAN_POINT('',(-1.775,0.27,-0.05));
#760=CARTESIAN_POINT('',(-1.4625,0.27,-0.05));
#761=CARTESIAN_POINT('Origin',(-1.775,0.27,-0.2));
#762=CARTESIAN_POINT('',(-1.925,0.27,-0.2));
#763=CARTESIAN_POINT('',(-1.925,0.27,-0.2));
#764=CARTESIAN_POINT('Origin',(-1.775,0.27,-0.2));
#765=CARTESIAN_POINT('Origin',(-1.,0.5,-1.25));
#766=CARTESIAN_POINT('Origin',(0.,0.27,0.));
#767=CARTESIAN_POINT('',(-0.135,0.27,-1.65327317884893E-17));
#768=CARTESIAN_POINT('',(0.,0.27,-0.135));
#769=CARTESIAN_POINT('Origin',(0.,0.27,0.));
#770=CARTESIAN_POINT('',(-0.135,0.,-1.65327317884893E-17));
#771=CARTESIAN_POINT('',(-0.135,0.27,0.));
#772=CARTESIAN_POINT('',(0.,0.,-0.135));
#773=CARTESIAN_POINT('Origin',(0.,0.,0.));
#774=CARTESIAN_POINT('',(0.,0.27,-0.135));
#775=CARTESIAN_POINT('Origin',(-2.,0.27,0.));
#776=CARTESIAN_POINT('',(-2.,0.27,-0.135));
#777=CARTESIAN_POINT('',(-1.865,0.27,0.));
#778=CARTESIAN_POINT('Origin',(-2.,0.27,0.));
#779=CARTESIAN_POINT('',(-2.,0.,-0.135));
#780=CARTESIAN_POINT('',(-2.,0.27,-0.135));
#781=CARTESIAN_POINT('',(-1.865,0.,0.));
#782=CARTESIAN_POINT('Origin',(-2.,0.,0.));
#783=CARTESIAN_POINT('',(-1.865,0.27,0.));
#784=CARTESIAN_POINT('Origin',(0.,0.27,-2.5));
#785=CARTESIAN_POINT('',(0.,0.27,-2.365));
#786=CARTESIAN_POINT('',(-0.135,0.27,-2.5));
#787=CARTESIAN_POINT('Origin',(0.,0.27,-2.5));
#788=CARTESIAN_POINT('',(0.,0.,-2.365));
#789=CARTESIAN_POINT('',(0.,0.27,-2.365));
#790=CARTESIAN_POINT('',(-0.135,0.,-2.5));
#791=CARTESIAN_POINT('Origin',(0.,0.,-2.5));
#792=CARTESIAN_POINT('',(-0.135,0.27,-2.5));
#793=CARTESIAN_POINT('Origin',(-2.,0.27,-2.5));
#794=CARTESIAN_POINT('',(-1.865,0.27,-2.5));
#795=CARTESIAN_POINT('',(-2.,0.27,-2.365));
#796=CARTESIAN_POINT('Origin',(-2.,0.27,-2.5));
#797=CARTESIAN_POINT('',(-1.865,0.,-2.5));
#798=CARTESIAN_POINT('',(-1.865,0.27,-2.5));
#799=CARTESIAN_POINT('',(-2.,0.,-2.365));
#800=CARTESIAN_POINT('Origin',(-2.,0.,-2.5));
#801=CARTESIAN_POINT('',(-2.,0.27,-2.365));
#802=CARTESIAN_POINT('Origin',(-1.,0.27,-1.25));
#803=CARTESIAN_POINT('',(0.,0.27,0.));
#804=CARTESIAN_POINT('',(0.,0.27,-2.5));
#805=CARTESIAN_POINT('',(-2.,0.27,-2.5));
#806=CARTESIAN_POINT('',(-2.,0.27,0.));
#807=CARTESIAN_POINT('',(-1.925,0.27,-2.3));
#808=CARTESIAN_POINT('',(-1.925,0.27,-1.85));
#809=CARTESIAN_POINT('',(-1.775,0.27,-2.45));
#810=CARTESIAN_POINT('Origin',(-1.775,0.27,-2.3));
#811=CARTESIAN_POINT('',(-0.225,0.27,-2.45));
#812=CARTESIAN_POINT('',(-0.5375,0.27,-2.45));
#813=CARTESIAN_POINT('Origin',(-0.225,0.27,-2.3));
#814=CARTESIAN_POINT('Origin',(-1.,0.,-1.25));
#815=CARTESIAN_POINT('',(-2.,0.,0.));
#816=CARTESIAN_POINT('',(-2.,0.,-2.5));
#817=CARTESIAN_POINT('',(0.,0.,-2.5));
#818=CARTESIAN_POINT('',(0.,0.,0.));
#819=CARTESIAN_POINT('Origin',(0.,0.,-2.5));
#820=CARTESIAN_POINT('Origin',(-1.775,0.27,-2.3));
#821=CARTESIAN_POINT('',(-1.775,0.27,-2.45));
#822=CARTESIAN_POINT('',(-1.925,0.27,-2.3));
#823=CARTESIAN_POINT('Origin',(-1.925,0.27,-2.45));
#824=CARTESIAN_POINT('Origin',(-0.225,0.27,-2.3));
#825=CARTESIAN_POINT('',(-0.225,0.27,-2.45));
#826=CARTESIAN_POINT('Origin',(-0.075,0.27,-2.45));
#827=CARTESIAN_POINT('Origin',(0.,0.,0.));
#828=CARTESIAN_POINT('Origin',(-2.,0.,0.));
#829=CARTESIAN_POINT('Origin',(-2.,0.,-2.5));
#830=UNCERTAINTY_MEASURE_WITH_UNIT(LENGTH_MEASURE(0.01),#834,
'DISTANCE_ACCURACY_VALUE',
'Maximum model space distance between geometric entities at asserted c
onnectivities');
#831=UNCERTAINTY_MEASURE_WITH_UNIT(LENGTH_MEASURE(0.01),#834,
'DISTANCE_ACCURACY_VALUE',
'Maximum model space distance between geometric entities at asserted c
onnectivities');
#832=(
GEOMETRIC_REPRESENTATION_CONTEXT(3)
GLOBAL_UNCERTAINTY_ASSIGNED_CONTEXT((#830))
GLOBAL_UNIT_ASSIGNED_CONTEXT((#834,#836,#837))
REPRESENTATION_CONTEXT('','3D')
);
#833=(
GEOMETRIC_REPRESENTATION_CONTEXT(3)
GLOBAL_UNCERTAINTY_ASSIGNED_CONTEXT((#831))
GLOBAL_UNIT_ASSIGNED_CONTEXT((#834,#836,#837))
REPRESENTATION_CONTEXT('','3D')
);
#834=(
LENGTH_UNIT()
NAMED_UNIT(*)
SI_UNIT(.MILLI.,.METRE.)
);
#835=(
LENGTH_UNIT()
NAMED_UNIT(*)
SI_UNIT(.CENTI.,.METRE.)
);
#836=(
NAMED_UNIT(*)
PLANE_ANGLE_UNIT()
SI_UNIT($,.RADIAN.)
);
#837=(
NAMED_UNIT(*)
SI_UNIT($,.STERADIAN.)
SOLID_ANGLE_UNIT()
);
#838=SHAPE_DEFINITION_REPRESENTATION(#839,#840);
#839=PRODUCT_DEFINITION_SHAPE('',$,#842);
#840=SHAPE_REPRESENTATION('',(#494),#832);
#841=PRODUCT_DEFINITION_CONTEXT('part definition',#846,'design');
#842=PRODUCT_DEFINITION('Quartz Crystal ABM10-166',
'Quartz Crystal ABM10-166',#843,#841);
#843=PRODUCT_DEFINITION_FORMATION('',$,#848);
#844=PRODUCT_RELATED_PRODUCT_CATEGORY('Quartz Crystal ABM10-166',
'Quartz Crystal ABM10-166',(#848));
#845=APPLICATION_PROTOCOL_DEFINITION('international standard',
'automotive_design',2009,#846);
#846=APPLICATION_CONTEXT(
'Core Data for Automotive Mechanical Design Process');
#847=PRODUCT_CONTEXT('part definition',#846,'mechanical');
#848=PRODUCT('Quartz Crystal ABM10-166','Quartz Crystal ABM10-166',$,(#847));
#849=PRESENTATION_STYLE_ASSIGNMENT((#853));
#850=PRESENTATION_STYLE_ASSIGNMENT((#854));
#851=PRESENTATION_STYLE_ASSIGNMENT((#855));
#852=PRESENTATION_STYLE_ASSIGNMENT((#856));
#853=SURFACE_STYLE_USAGE(.BOTH.,#861);
#854=SURFACE_STYLE_USAGE(.BOTH.,#862);
#855=SURFACE_STYLE_USAGE(.BOTH.,#863);
#856=SURFACE_STYLE_USAGE(.BOTH.,#864);
#857=SURFACE_STYLE_RENDERING_WITH_PROPERTIES($,#877,(#859));
#858=SURFACE_STYLE_RENDERING_WITH_PROPERTIES($,#879,(#860));
#859=SURFACE_STYLE_TRANSPARENT(0.);
#860=SURFACE_STYLE_TRANSPARENT(0.);
#861=SURFACE_SIDE_STYLE('',(#865,#857));
#862=SURFACE_SIDE_STYLE('',(#866));
#863=SURFACE_SIDE_STYLE('',(#867,#858));
#864=SURFACE_SIDE_STYLE('',(#868));
#865=SURFACE_STYLE_FILL_AREA(#869);
#866=SURFACE_STYLE_FILL_AREA(#870);
#867=SURFACE_STYLE_FILL_AREA(#871);
#868=SURFACE_STYLE_FILL_AREA(#872);
#869=FILL_AREA_STYLE('',(#873));
#870=FILL_AREA_STYLE('',(#874));
#871=FILL_AREA_STYLE('',(#875));
#872=FILL_AREA_STYLE('',(#876));
#873=FILL_AREA_STYLE_COLOUR('',#877);
#874=FILL_AREA_STYLE_COLOUR('',#878);
#875=FILL_AREA_STYLE_COLOUR('',#879);
#876=FILL_AREA_STYLE_COLOUR('',#880);
#877=COLOUR_RGB('',0.745098039215686,0.737254901960784,0.729411764705882);
#878=COLOUR_RGB('',0.509803921568627,0.454901960784314,0.286274509803922);
#879=COLOUR_RGB('',0.,0.,0.);
#880=COLOUR_RGB('',0.164705882352941,0.164705882352941,0.164705882352941);
ENDSEC;
END-ISO-10303-21;
